<?xml version="1.0" encoding="UTF-8"?>
<svg version="1.1" xmlns="http://www.w3.org/2000/svg" width="2000" height="1500">
<path d="M0 0 C660 0 1320 0 2000 0 C2000 495 2000 990 2000 1500 C1340 1500 680 1500 0 1500 C0 1005 0 510 0 0 Z " fill="#040917" transform="translate(0,0)"/>
<path d="M0 0 C1.10822113 -0.01444153 1.10822113 -0.01444153 2.23883057 -0.0291748 C15.81698739 -0.1806671 29.0610738 1.19414798 41.875 6 C42.57165771 6.2563623 43.26831543 6.51272461 43.98608398 6.77685547 C71.40382045 17.16549854 93.6592567 36.31116032 110.375 60.3125 C110.78121582 60.88500488 111.18743164 61.45750977 111.60595703 62.04736328 C158.57634988 128.47614672 153.79626094 228.549345 153.57061768 306.4800415 C153.55983186 311.15694993 153.5601953 315.83382921 153.56062126 320.51074791 C153.56012445 343.80155215 153.40364622 367.07638346 152.79154968 390.35942078 C152.39395535 405.57089301 152.1363 420.78318747 151.90588737 435.9980371 C151.86487663 438.69763778 151.82318113 441.3972277 151.78148013 444.09681779 C151.60031742 455.82897119 151.4225787 467.5611742 151.25 479.29345703 C151.14880698 486.1706378 151.04323241 493.0477417 150.93530273 499.92481995 C150.89550136 502.51141558 150.85722109 505.09803512 150.82055664 507.68467712 C150.76958034 511.27488007 150.71347382 514.86497008 150.65625 518.45507812 C150.64271484 519.498116 150.62917969 520.54115387 150.61523438 521.61579895 C150.516279 527.4494976 150.18503783 533.20721623 149.60081387 539.01302528 C149.33757236 541.69362771 149.20495312 544.36257716 149.12890625 547.0546875 C149.09740479 548.04082031 149.06590332 549.02695312 149.03344727 550.04296875 C149.00178467 551.08066406 148.97012207 552.11835937 148.9375 553.1875 C148.66827471 561.05940107 148.30179851 568.90736886 147.70420837 576.76144409 C145.18463347 610.30801491 144.23646581 643.92833717 144.03125 677.5625 C144.02711932 678.22857521 144.02298864 678.89465042 144.01873279 679.58090973 C143.95200982 690.51908766 143.90824226 701.45734607 143.86717987 712.39564514 C143.61093768 780.41092224 143.61093768 780.41092224 141.375 806.3125 C141.28150269 807.39607788 141.18800537 808.47965576 141.0916748 809.59606934 C140.57190598 815.40823284 139.97608173 821.20800887 139.30761719 827.00488281 C138.99380524 829.74152227 138.69943009 832.47983071 138.40625 835.21875 C137.13749926 846.70360131 135.23670957 857.94567958 132.81318665 869.24186707 C132.19249949 872.17489863 131.63030146 875.11884749 131.0625 878.0625 C128.03769956 891.91118093 124.08460556 905.73535141 118.75 918.875 C118.48541992 919.53411377 118.22083984 920.19322754 117.94824219 920.87231445 C115.44334963 926.76523476 112.74889197 932.64756701 106.59570312 935.23364258 C105.1241036 935.74887409 103.64346963 936.23879365 102.15625 936.70703125 C101.3533252 936.98102753 100.55040039 937.2550238 99.72314453 937.537323 C97.11397632 938.4221155 94.49519539 939.27348422 91.875 940.125 C90.06888497 940.73117113 88.26354961 941.33967007 86.45898438 941.95043945 C82.8293095 943.17561918 79.19593331 944.38859065 75.55859375 945.59082031 C69.55158171 947.57938859 63.57027602 949.63923321 57.59179688 951.71166992 C54.09509466 952.92370996 50.59465248 954.12438016 47.09375 955.32421875 C43.13416072 956.68995858 39.19989244 958.10295329 35.28466797 959.59057617 C24.55712961 963.64597516 13.71149762 967.33662775 2.6875 970.5 C1.90673096 970.72534424 1.12596191 970.95068848 0.3215332 971.18286133 C-14.44463346 975.328463 -29.18852494 978.25038373 -44.375 980.3125 C-45.75211151 980.50193176 -45.75211151 980.50193176 -47.15704346 980.69519043 C-61.40753314 982.641917 -75.67741408 984.25213162 -90 985.5625 C-90.80949097 985.63936035 -91.61898193 985.7162207 -92.45300293 985.79541016 C-132.72345004 989.55980815 -173.1858916 989.61662185 -213.59185791 989.51309669 C-218.30709646 989.50155739 -223.02229687 989.49735105 -227.73754883 989.49780273 C-259.39289401 989.50055812 -291.03510649 989.25271779 -322.68556213 988.67453003 C-342.9998152 988.3048859 -363.30751263 988.11139943 -383.625 988.125 C-384.84833794 988.12517939 -384.84833794 988.12517939 -386.09638977 988.1253624 C-433.86164095 988.13409802 -481.28173177 989.9024572 -528.75195312 995.39819336 C-530.33459961 995.57813843 -530.33459961 995.57813843 -531.94921875 995.76171875 C-532.85760498 995.86830811 -533.76599121 995.97489746 -534.7019043 996.0847168 C-540.57403129 996.54230424 -545.7591125 996.39558249 -551.53816223 995.26115417 C-567.62643252 992.19931914 -584.11835769 992.90188645 -600.42205811 992.9899292 C-603.74512829 993.00323341 -607.0680611 992.99811453 -610.39114571 992.99305534 C-630.14788668 992.97049298 -649.71898679 993.59747899 -669.42327881 995.07415771 C-685.7311148 996.2881444 -701.96283824 996.43606209 -718.3125 996.375 C-720.68294175 996.36996997 -723.05338455 996.36540975 -725.42382812 996.36132812 C-731.15757539 996.3504531 -736.8912826 996.33383652 -742.625 996.3125 C-743.07875 995.19875 -743.5325 994.085 -744 992.9375 C-745.34965986 989.35050992 -745.34965986 989.35050992 -747.625 987.3125 C-749.97218278 987.10679262 -749.97218278 987.10679262 -752.625 988.3125 C-753.69214141 989.47716086 -754.73107599 990.66792935 -755.75 991.875 C-758.53938264 994.73575277 -760.42426661 995.96218713 -764.4375 996.3125 C-770.95598059 995.95236295 -776.37058723 992.75360837 -781.90356445 989.515625 C-787.47255644 986.38256353 -792.23983491 985.36578102 -798.625 986.3125 C-801.82985402 987.92119555 -801.82985402 987.92119555 -804.625 990.3125 C-809.7103298 994.31054325 -813.88414624 996.23866209 -820.4453125 995.9296875 C-828.44852991 994.37623744 -835.88239458 990.28206747 -843.046875 986.51171875 C-850.93935332 982.47885483 -857.75551536 980.71834655 -866.625 982.3125 C-873.13639564 984.99034669 -876.98413956 989.44014445 -880.625 995.3125 C-884.08708451 991.85041549 -884.64379392 987.79443137 -884.9375 983.0625 C-885.61120336 974.77467748 -887.90058442 964.76133115 -891.625 957.3125 C-892.615 956.9825 -893.605 956.6525 -894.625 956.3125 C-894.90601563 957.02921875 -895.18703125 957.7459375 -895.4765625 958.484375 C-896.58540306 961.21498916 -897.74628315 963.89535714 -899 966.5625 C-899.39960937 967.43390625 -899.79921875 968.3053125 -900.2109375 969.203125 C-901.625 971.3125 -901.625 971.3125 -903.7265625 971.984375 C-904.66628906 972.14679688 -904.66628906 972.14679688 -905.625 972.3125 C-906.87748502 974.81747004 -906.73874406 976.52103274 -906.72265625 979.3203125 C-906.71943359 980.30644531 -906.71621094 981.29257813 -906.71289062 982.30859375 C-906.70451172 983.34113281 -906.69613281 984.37367188 -906.6875 985.4375 C-906.68073242 986.99791016 -906.68073242 986.99791016 -906.67382812 988.58984375 C-906.66201952 991.16411962 -906.64555075 993.73828146 -906.625 996.3125 C-908.49438477 996.08129883 -908.49438477 996.08129883 -910.625 995.3125 C-914.71791922 988.84798273 -915.82526573 980.5243701 -917.1875 973.125 C-917.39802002 972.0309082 -917.60854004 970.93681641 -917.82543945 969.80957031 C-918.43373335 966.64541379 -919.03054768 963.47928136 -919.625 960.3125 C-920.1799341 957.39431207 -920.74368475 954.47800711 -921.3125 951.5625 C-921.52261719 950.45390625 -921.73273438 949.3453125 -921.94921875 948.203125 C-922.5999451 945.41967124 -923.48600387 942.92976771 -924.625 940.3125 C-926.53966367 940.43427688 -926.53966367 940.43427688 -928.625 941.3125 C-930.77013822 943.97543021 -931.64451454 945.49288935 -931.5625 948.9375 C-930.83884292 951.45894421 -930.83884292 951.45894421 -928.58984375 952.5859375 C-926.625 954.3125 -926.625 954.3125 -926.1640625 957.125 C-926.19242188 958.176875 -926.22078125 959.22875 -926.25 960.3125 C-926.26933594 961.8903125 -926.26933594 961.8903125 -926.2890625 963.5 C-926.625 966.3125 -926.625 966.3125 -928.625 969.3125 C-932.25 970 -932.25 970 -935.625 970.3125 C-935.65078125 971.446875 -935.6765625 972.58125 -935.703125 973.75 C-936.2285969 989.60905813 -936.2285969 989.60905813 -940.625 995.3125 C-943.4375 996.8125 -943.4375 996.8125 -946.625 996.3125 C-949.38980902 993.97208604 -951.47012429 991.20977136 -953.625 988.3125 C-954.21152344 987.54808594 -954.79804687 986.78367187 -955.40234375 985.99609375 C-956.83154258 984.11627693 -958.23763988 982.22329635 -959.625 980.3125 C-960.23859375 980.46589844 -960.8521875 980.61929688 -961.484375 980.77734375 C-962.19078125 980.95394531 -962.8971875 981.13054688 -963.625 981.3125 C-964.3675 981.498125 -965.11 981.68375 -965.875 981.875 C-966.4525 982.019375 -967.03 982.16375 -967.625 982.3125 C-968.85125047 979.85999907 -968.65925355 978.46939565 -968.50390625 975.7421875 C-968.45556641 974.84628906 -968.40722656 973.95039062 -968.35742188 973.02734375 C-968.30134766 972.09019531 -968.24527344 971.15304687 -968.1875 970.1875 C-968.13529297 969.24261719 -968.08308594 968.29773437 -968.02929688 967.32421875 C-967.89943239 964.9866581 -967.7644613 962.64950455 -967.625 960.3125 C-971.79060592 961.65998296 -973.89468808 963.34500939 -976.6875 966.6875 C-979.22824258 969.69614171 -981.80499081 972.5615779 -984.625 975.3125 C-985.70394531 974.80460937 -986.78289062 974.29671875 -987.89453125 973.7734375 C-998.90866098 968.67948015 -1009.94950588 964.60689367 -1021.625 961.3125 C-1022.60194824 961.02681152 -1022.60194824 961.02681152 -1023.59863281 960.73535156 C-1053.80445239 952.04901863 -1085.64780885 952.741233 -1116.75 952.75 C-1124.73188308 952.74709603 -1132.71355292 952.72931477 -1140.6953125 952.68359375 C-1141.66484234 952.67814104 -1142.63437218 952.67268833 -1143.63328171 952.66707039 C-1157.40036242 952.57006921 -1171.07445768 952.01737514 -1184.796875 950.8984375 C-1185.57508732 950.83514692 -1186.35329964 950.77185635 -1187.15509415 950.70664787 C-1243.12058647 946.03883611 -1290.24828655 922.09217524 -1328.625 881.3125 C-1329.37652344 880.57902344 -1330.12804688 879.84554687 -1330.90234375 879.08984375 C-1333.74869654 874.50082598 -1333.17514844 870.10684101 -1332.15673828 864.93408203 C-1331.56418269 862.5574881 -1330.8961099 860.21946415 -1330.1875 857.875 C-1329.84235352 856.67327148 -1329.84235352 856.67327148 -1329.49023438 855.44726562 C-1327.82125566 849.70501132 -1327.82125566 849.70501132 -1326.625 847.3125 C-1326.45068154 845.19210174 -1326.35790929 843.06456692 -1326.3125 840.9375 C-1326.27511719 839.79539062 -1326.23773437 838.65328125 -1326.19921875 837.4765625 C-1326.71804142 833.6210913 -1327.84838771 832.89850996 -1330.625 830.3125 C-1333.51149255 824.5395149 -1332.83434639 818.11167022 -1332.875 811.8125 C-1333.09078116 799.73494255 -1334.60255233 788.19994519 -1336.6875 776.3125 C-1339.75769948 758.68050451 -1341.35329103 741.17614298 -1339.0078125 723.30078125 C-1338.60607223 720.03539187 -1338.73312386 717.88483596 -1340.0625 714.8125 C-1344.71092063 700.88875858 -1340.81588734 686.18228663 -1336.82983398 672.60375977 C-1334.38787949 663.80126445 -1334.23332695 655.49628621 -1334.36132812 646.40820312 C-1334.27240548 638.40048522 -1334.27240548 638.40048522 -1332.50390625 635.4284668 C-1329.85144913 632.92006859 -1327.53976242 632.3010924 -1323.9765625 631.82421875 C-1322.13191406 631.91123047 -1322.13191406 631.91123047 -1320.25 632 C-1319.00476562 632.04511719 -1317.75953125 632.09023438 -1316.4765625 632.13671875 C-1315.06503906 632.22373047 -1315.06503906 632.22373047 -1313.625 632.3125 C-1310.71262309 627.34571667 -1310.12879428 623.33974284 -1309.75 617.75 C-1308.49005224 604.00104727 -1303.66492722 591.69270519 -1293.4375 582.0625 C-1285.40715692 575.7236926 -1275.32904119 572.26965619 -1265.875 568.609375 C-1263.36852792 567.60919624 -1261.02117049 566.53793284 -1258.625 565.3125 C-1258.75551758 564.65991211 -1258.88603516 564.00732422 -1259.02050781 563.33496094 C-1259.20452148 562.41489258 -1259.38853516 561.49482422 -1259.578125 560.546875 C-1259.78324707 559.52198975 -1259.98836914 558.49710449 -1260.19970703 557.44116211 C-1260.65493233 555.16355439 -1261.10900944 552.88571692 -1261.56201172 550.60766602 C-1262.59624242 545.41365057 -1263.63561169 540.22210636 -1264.7421875 535.04296875 C-1272.0932248 500.43299942 -1275.56546827 461.30489903 -1264.78515625 427.00390625 C-1264.54259133 422.92763243 -1265.97287529 421.34928401 -1268.625 418.3125 C-1271.12922833 416.5767464 -1273.77767875 415.23476169 -1276.5 413.875 C-1287.46439161 407.97232094 -1291.08385611 402.56328671 -1294.7421875 390.640625 C-1295.625 387.3125 -1295.625 387.3125 -1295.625 384.3125 C-1298.54017292 385.38651108 -1300.40310176 386.09060176 -1302.625 388.3125 C-1304.75 387.9375 -1304.75 387.9375 -1306.625 387.3125 C-1306.66238281 386.24515625 -1306.69976563 385.1778125 -1306.73828125 384.078125 C-1307.84331047 357.24911457 -1313.96652264 331.42280101 -1321.99462891 305.85546875 C-1324.9453096 296.43706769 -1327.47851382 286.9196455 -1330 277.37890625 C-1330.95147009 273.78699551 -1331.93264277 270.21150921 -1333 266.65234375 C-1336.41915661 255.19004073 -1338.47884013 243.59288193 -1340.4921875 231.80859375 C-1341.50209823 225.91351385 -1342.67686716 220.09206457 -1344.046875 214.26953125 C-1348.25501474 192.74546517 -1346.51181858 169.10729553 -1334.703125 150.2421875 C-1332.77504729 147.49953433 -1330.764968 144.89230332 -1328.625 142.3125 C-1328.11710937 141.69117188 -1327.60921875 141.06984375 -1327.0859375 140.4296875 C-1309.07079445 120.56683748 -1279.4630532 114.001453 -1254.5274353 108.36676025 C-1236.83286115 104.38355352 -1236.83286115 104.38355352 -1220.4375 96.84765625 C-1215.04186535 93.78565501 -1209.42566163 92.36522196 -1203.4375 90.875 C-1201.11962288 90.2766952 -1198.80191718 89.67772589 -1196.484375 89.078125 C-1195.33130859 88.78357422 -1194.17824219 88.48902344 -1192.99023438 88.18554688 C-1188.94871547 87.13705068 -1184.93009114 86.01639946 -1180.91040039 84.88769531 C-1172.43302185 82.51314761 -1163.95230947 80.40162161 -1155.31469727 78.69262695 C-1151.31462386 77.89993087 -1147.37238336 77.00088975 -1143.42578125 75.97265625 C-1134.01094723 73.58999045 -1124.4664116 71.79730104 -1114.9375 69.9375 C-1113.91624023 69.73796722 -1112.89498047 69.53843445 -1111.84277344 69.33285522 C-1094.58585214 65.97459619 -1077.3267233 62.9990325 -1059.90533447 60.62506104 C-1057.46531672 60.29061252 -1055.02633105 59.94923026 -1052.58740234 59.60693359 C-1012.74639394 54.03465266 -972.7971089 49.8554105 -932.625 47.625 C-931.64345947 47.57010406 -930.66191895 47.51520813 -929.65063477 47.45864868 C-922.41517385 47.06276421 -915.17750274 46.73124667 -907.93816757 46.4149704 C-905.37348747 46.30135831 -902.80901837 46.1835094 -900.24453735 46.06549072 C-867.64728792 44.57769363 -835.11420565 43.98226455 -802.48467636 44.05515671 C-798.73576387 44.06265345 -794.98686442 44.06622975 -791.23794556 44.06887817 C-725.79305932 44.12410396 -660.34888838 45.1498601 -594.9206543 46.58666992 C-566.45381758 47.20852951 -537.99021882 47.6154955 -509.51630497 47.70537281 C-503.14966194 47.72566589 -496.78362102 47.75794588 -490.41723633 47.82006836 C-458.08385395 48.12710146 -426.79835387 46.72036642 -394.79269409 42.05273438 C-387.73345163 41.02812006 -380.65539359 40.20343767 -373.5703125 39.37890625 C-370.96620105 39.06600651 -368.36233769 38.75158148 -365.75878906 38.43408203 C-364.72823505 38.30847491 -364.72823505 38.30847491 -363.67686176 38.18033028 C-353.64799667 36.95339658 -343.62444581 35.68353971 -333.60018158 34.41968918 C-329.98702235 33.9641926 -326.37380007 33.50919936 -322.76055908 33.05435181 C-320.31563225 32.74652802 -317.87070632 32.43869716 -315.42578125 32.13085938 C-314.20148785 31.97671759 -312.97719444 31.8225758 -311.71580124 31.66376305 C-305.47775353 30.87807155 -299.23991314 30.09078893 -293.00244141 29.30053711 C-241.67003339 22.79967599 -241.67003339 22.79967599 -216.85626221 20.61312866 C-211.8993427 20.1519491 -206.95133157 19.61343821 -202.00233459 19.07514954 C-191.66134748 17.95064326 -181.36010629 16.97673567 -170.9621582 16.60302734 C-169.87294067 16.56363037 -169.87294067 16.56363037 -168.76171875 16.5234375 C-168.15030029 16.50587402 -167.53888184 16.48831055 -166.90893555 16.47021484 C-164.16524238 16.28075191 -161.45287212 15.9096885 -158.72596741 15.55899048 C-153.3032254 14.92278153 -147.83141964 14.73419482 -142.38098145 14.4407959 C-140.77597462 14.35431232 -139.17107553 14.26580881 -137.56628418 14.17541504 C-128.24895432 13.65241246 -118.94956721 13.25415771 -109.6171875 13.171875 C-92.09160425 12.99818423 -76.35584712 11.95075993 -59.38183594 7.06591797 C-51.59061209 4.93664797 -43.58656692 3.6320056 -35.625 2.3125 C-34.59173584 2.13460937 -34.59173584 2.13460937 -33.53759766 1.953125 C-22.43294522 0.11917896 -11.22683209 0.08199289 0 0 Z " fill="#6E43D0" transform="translate(1595.625,251.6875)"/>
<path d="M0 0 C0.74365688 -0.00105869 1.48731377 -0.00211739 2.25350571 -0.00320816 C35.40918613 -0.0477069 68.4795047 1.88479771 100.5 11.25 C101.83466309 11.63792725 101.83466309 11.63792725 103.19628906 12.03369141 C130.29084301 20.0590069 154.98568093 32.42103048 176.0625 51.4375 C177.33293475 52.53431601 178.60379892 53.63063475 179.875 54.7265625 C192.14130044 65.45576169 203.60934555 77.14367001 213.0625 90.4375 C213.53316895 91.09089355 214.00383789 91.74428711 214.48876953 92.41748047 C231.6737591 116.49003742 244.22407956 143.39358108 250.0625 172.4375 C250.34738281 173.68015625 250.63226562 174.9228125 250.92578125 176.203125 C260.86214055 219.71590221 252.21503336 263.87554828 233.0625 303.4375 C232.7221875 304.14310059 232.381875 304.84870117 232.03125 305.57568359 C230.09541404 309.56550956 228.10755261 313.52578606 226.07617188 317.46777344 C225.39081994 318.79952185 224.70994356 320.13358155 224.03320312 321.46972656 C208.14755299 352.8120847 186.84876674 380.92246653 164.14648438 407.6015625 C161.25369057 411.00674796 158.42442762 414.45466781 155.625 417.9375 C151.24565122 423.32323414 146.56205162 428.38566799 141.828125 433.45703125 C139.73339076 435.70348689 137.68920331 437.98223428 135.6875 440.3125 C127.35133388 449.9295892 118.49401771 459.08025655 109.4453125 468.0234375 C106.78661842 470.7169997 104.32778972 473.53358521 101.8671875 476.40625 C97.04220797 481.83696289 91.84867952 486.9208705 86.33984375 491.65234375 C81.50930525 495.84682261 77.04791076 500.38009228 72.5625 504.9375 C67.53120188 510.04955732 62.4846511 515.03993933 57.04101562 519.71289062 C53.44733076 522.84539185 50.01682329 526.15306147 46.5625 529.4375 C41.73944848 534.02335226 36.87277752 538.52740459 31.84423828 542.88769531 C29.61384958 544.82774841 27.43171987 546.81800303 25.25 548.8125 C20.87964316 552.76121445 16.35946921 556.4837721 11.78125 560.1875 C9.14102271 562.37251569 6.5952028 564.62921391 4.0625 566.9375 C0.74260514 569.96032421 -2.63514112 572.86262161 -6.125 575.6875 C-11.89812493 580.36291807 -17.4969156 585.22281172 -23.09765625 590.1015625 C-26.18833391 592.79271163 -29.29888811 595.45934142 -32.41821289 598.1171875 C-38.20399583 603.04791682 -43.88445766 608.06560498 -49.48828125 613.203125 C-52.25979524 615.73152372 -55.07877003 618.19934 -57.91015625 620.66015625 C-61.14013076 623.49182947 -64.31940656 626.37952507 -67.5078125 629.2578125 C-69.5935618 631.12895094 -71.69567628 632.97674831 -73.8125 634.8125 C-76.23668789 636.91511195 -78.61454122 639.05753008 -80.9609375 641.24609375 C-81.49348145 641.74125488 -82.02602539 642.23641602 -82.57470703 642.74658203 C-83.62887953 643.72926357 -84.67950235 644.71577055 -85.72607422 645.70654297 C-91.58352262 651.16123128 -95.48027881 652.02235192 -103.42578125 651.87109375 C-115.07577344 650.43266312 -124.08357454 642.21523707 -131.359375 633.5546875 C-143.24245627 618.2483109 -151.75128882 599.71639532 -157.9375 581.4375 C-158.32711914 580.2932959 -158.32711914 580.2932959 -158.72460938 579.12597656 C-164.55612861 561.6674159 -167.98364062 543.61827093 -170.6875 525.4375 C-170.80311279 524.6751001 -170.91872559 523.9127002 -171.0378418 523.12719727 C-173.22781981 507.36168359 -173.14071294 491.38213362 -173.125 475.5 C-173.12472809 474.46325134 -173.12445618 473.42650269 -173.12417603 472.3583374 C-173.1052204 456.61910319 -172.6614874 441.09367979 -170.9375 425.4375 C-170.74067347 423.45444811 -170.54406281 421.47137478 -170.34765625 419.48828125 C-166.41458631 381.90225908 -157.31910411 344.96387869 -147.9375 308.4375 C-147.74591309 307.68662109 -147.55432617 306.93574219 -147.35693359 306.16210938 C-144.9593688 296.7959653 -142.2411167 287.52712443 -139.48632812 278.26074219 C-137.73958494 272.34823337 -136.16606568 266.41747749 -134.69458008 260.4309082 C-133.43752331 255.46064924 -132.0060123 250.54379832 -130.5625 245.625 C-130.25650879 244.57820068 -129.95051758 243.53140137 -129.63525391 242.45288086 C-127.63112473 235.65049481 -125.48555473 228.92253275 -123.1862793 222.21411133 C-121.94273816 218.45334145 -120.81693023 214.66907961 -119.72265625 210.86328125 C-116.66883577 200.37027931 -113.33207576 189.96975196 -110 179.5625 C-109.39890404 177.68104852 -108.79799199 175.79953827 -108.19726562 173.91796875 C-107.9013855 172.99129395 -107.60550537 172.06461914 -107.30065918 171.10986328 C-106.13128669 167.44673784 -104.96224213 163.78350797 -103.79370117 160.12011719 C-103.22273083 158.33117446 -102.65111579 156.54243737 -102.07885742 154.75390625 C-101.25999935 152.19340641 -100.44412418 149.63197326 -99.62890625 147.0703125 C-99.38777603 146.31855743 -99.14664581 145.56680237 -98.89820862 144.79226685 C-97.00551212 138.82918094 -95.43842064 132.82232784 -93.9921875 126.734375 C-92.92355851 122.27836174 -91.72264458 117.85842337 -90.5368042 113.43244934 C-83.38117808 86.68892106 -76.95130198 59.85568482 -72.9375 32.4375 C-99.17641723 35.19258631 -125.06457047 40.57029824 -149.9375 49.4375 C-150.80874512 49.74268555 -151.67999023 50.04787109 -152.57763672 50.36230469 C-170.81100047 56.8015347 -188.56469507 64.54045846 -203.9375 76.4375 C-204.49018555 76.86144043 -205.04287109 77.28538086 -205.61230469 77.72216797 C-215.30350888 85.23628295 -222.55200967 93.25852765 -227.9375 104.4375 C-228.5975 104.4375 -229.2575 104.4375 -229.9375 104.4375 C-229.47993378 85.63568808 -217.40549783 70.92354611 -204.671875 58.16796875 C-178.00816144 32.96104749 -140.01105143 19.54929187 -104.9375 11.4375 C-104.01050293 11.21755371 -103.08350586 10.99760742 -102.12841797 10.77099609 C-91.13428401 8.17619011 -80.09465446 6.01795027 -68.9375 4.25 C-67.97932373 4.09515137 -67.02114746 3.94030273 -66.03393555 3.78076172 C-44.10587202 0.46930163 -22.12728952 0.00034196 0 0 Z M-46.9375 28.4375 C-47.06705078 30.66113281 -47.06705078 30.66113281 -47.19921875 32.9296875 C-50.17332063 79.22841066 -59.59938329 126.07378251 -73.31347656 170.37646484 C-74.58213384 174.56660754 -75.74774643 178.78693001 -76.9375 183 C-79.21372022 191.00576918 -81.62023793 198.95470851 -84.13476562 206.88916016 C-85.74075345 211.9874877 -87.31979753 217.0942436 -88.90292358 222.19970703 C-89.48155991 224.0655393 -90.06071767 225.93120984 -90.63989258 227.796875 C-92.40134144 233.4730407 -94.15791724 239.15061003 -95.90234375 244.83203125 C-99.09329428 255.20931092 -102.34179466 265.56831305 -105.62109375 275.91796875 C-110.61911292 291.69622112 -115.60599659 307.46087161 -119.9375 323.4375 C-120.34884719 324.93611037 -120.76049353 326.43463864 -121.17236328 327.93310547 C-127.21072132 349.95742196 -132.817482 371.78149911 -135.9375 394.4375 C-136.09318451 395.55128021 -136.09318451 395.55128021 -136.25201416 396.68756104 C-137.07458675 402.57936745 -137.85899571 408.47559195 -138.625 414.375 C-138.72818542 415.15603088 -138.83137085 415.93706177 -138.93768311 416.74176025 C-142.24240241 442.05167658 -143.29956505 467.43598253 -143.25317383 492.93359375 C-143.24852623 495.68994394 -143.25555935 498.44585438 -143.27368164 501.20214844 C-143.42884008 525.08166246 -141.95907414 548.67340236 -137.5625 572.1875 C-137.34972412 573.34668945 -137.13694824 574.50587891 -136.91772461 575.70019531 C-135.23024952 584.56518028 -133.02829644 592.95856886 -129.9375 601.4375 C-129.46921218 602.79007408 -129.00179118 604.14294853 -128.53515625 605.49609375 C-122.81020212 621.76125842 -115.51167217 635.55342047 -100.9375 645.4375 C-100.2775 645.1075 -99.6175 644.7775 -98.9375 644.4375 C-99.23930176 643.8297876 -99.54110352 643.2220752 -99.85205078 642.59594727 C-106.0318319 630.0891352 -111.66500792 617.72056833 -115.9375 604.4375 C-116.30657471 603.38598755 -116.30657471 603.38598755 -116.68310547 602.31323242 C-118.61370195 596.77534126 -119.94986625 591.25454176 -121.0625 585.5 C-121.23136719 584.67048828 -121.40023437 583.84097656 -121.57421875 582.98632812 C-123.48262804 573.3165535 -124.09909187 563.78341184 -124.140625 553.9375 C-124.14632507 552.86234131 -124.15202515 551.78718262 -124.15789795 550.67944336 C-124.16729254 548.41374681 -124.17385971 546.14803693 -124.17773438 543.88232422 C-124.18739459 540.47468224 -124.21845364 537.06765606 -124.25 533.66015625 C-124.4053315 502.09679597 -124.4053315 502.09679597 -117.9375 490.4375 C-116.9475 490.4375 -115.9575 490.4375 -114.9375 490.4375 C-114.11830579 493.45655791 -113.30838233 496.47803079 -112.5 499.5 C-112.26990234 500.34755859 -112.03980469 501.19511719 -111.80273438 502.06835938 C-110.02379414 508.7458307 -108.91813038 515.14751616 -108.69848633 522.0769043 C-107.56320614 555.64876116 -102.24493269 590.47412169 -91.9375 622.4375 C-91.72287109 623.10797363 -91.50824219 623.77844727 -91.28710938 624.46923828 C-90.21186134 627.80677406 -89.10165303 631.12993581 -87.9375 634.4375 C-87.2775 634.4375 -86.6175 634.4375 -85.9375 634.4375 C-84.3040113 632.66563558 -84.3040113 632.66563558 -82.5625 630.3125 C-74.86539328 620.45406803 -66.60511763 611.08111163 -58.15234375 601.8671875 C-56.29743183 599.83234585 -54.48321202 597.77428753 -52.6875 595.6875 C-44.78201756 586.6018152 -36.45598345 577.86086767 -27.87890625 569.41015625 C-25.979835 567.48051645 -24.20143186 565.49073276 -22.4375 563.4375 C-17.49978664 557.70154198 -12.19790581 552.35894345 -6.44335938 547.44335938 C-1.18260915 542.84865311 3.72931925 537.91536337 8.66015625 532.97265625 C9.66313903 531.97034919 10.66627003 530.96819044 11.66954041 529.96617126 C13.75959138 527.87758466 15.84784888 525.78722612 17.93481445 523.69555664 C20.5894787 521.0351959 23.24860884 518.37935158 25.90911198 515.72483158 C27.97774949 513.65983394 30.04396699 511.59242796 32.10949516 509.5243206 C33.08822005 508.54493589 34.06766806 507.56627319 35.04789925 506.58839607 C40.06131972 501.58438031 44.94475242 496.53850174 49.55906677 491.16331482 C51.63372808 488.78177824 53.84469608 486.56013001 56.09375 484.34375 C56.98707031 483.45816406 57.88039063 482.57257813 58.80078125 481.66015625 C60.64192708 479.84505208 62.48307292 478.02994792 64.32421875 476.21484375 C68.91509769 471.66371268 73.35543259 467.0722133 77.56054688 462.16210938 C79.61572737 459.80225972 81.82120115 457.6198173 84.0625 455.4375 C87.54683405 451.98973317 90.84462816 448.47836066 94.02734375 444.75390625 C96.21077796 442.26873066 98.46196232 439.85849342 100.72631836 437.44726562 C106.03021568 431.79905767 111.10552812 426.06627512 115.953125 420.015625 C118.08235146 417.4132371 120.29699357 414.92174498 122.5625 412.4375 C127.26663303 407.26214121 131.68147747 401.88740764 136.0625 396.4375 C136.9882317 395.29292867 137.91401529 394.14839931 138.83984375 393.00390625 C146.41707859 383.6111609 153.82232287 374.09249797 161.0625 364.4375 C161.61083496 363.7062793 162.15916992 362.97505859 162.72412109 362.22167969 C170.8407253 351.33756374 178.23838433 340.1745674 185.0625 328.4375 C185.48096191 327.72158691 185.89942383 327.00567383 186.33056641 326.26806641 C200.88709646 301.20448189 214.23726862 273.98454035 220.0625 245.4375 C220.27261719 244.50164062 220.48273438 243.56578125 220.69921875 242.6015625 C230.06621767 199.4203618 217.39295629 151.57786563 194.5625 114.5625 C172.17378351 80.72730008 138.32857688 59.50925191 100.49047852 46.29663086 C98.79642413 45.69719623 97.10981597 45.07647825 95.42944336 44.43969727 C88.83371849 41.95020075 82.24697428 40.06363097 75.375 38.5 C74.26850098 38.24766602 73.16200195 37.99533203 72.02197266 37.73535156 C46.01430185 31.99428699 18.75020451 27.49926039 -7.9375 28.4375 C-7.80472656 29.25089844 -7.67195312 30.06429688 -7.53515625 30.90234375 C-1.12171992 72.51945976 -3.40849391 119.46262417 -14.33984375 160.14941406 C-15.02072735 162.7561302 -15.6531078 165.37226672 -16.28125 167.9921875 C-19.11797818 179.7642256 -22.33138739 191.31026621 -26.12890625 202.80859375 C-27.35675653 206.55244544 -28.49373598 210.31500296 -29.58746338 214.10018921 C-32.85710187 225.41194333 -36.52013081 236.58264958 -40.25 247.75 C-40.59487457 248.7840799 -40.93974915 249.81815979 -41.29507446 250.88357544 C-52.09450631 283.20468588 -63.70912105 315.23647954 -76.48095703 346.83251953 C-77.43703552 349.19883782 -78.38868217 351.56695255 -79.33544922 353.93701172 C-92.61336181 387.14381592 -92.61336181 387.14381592 -99.9375 390.4375 C-98.1562305 362.75267044 -94.30680401 336.08601818 -88.83837891 308.92871094 C-87.98512452 304.68716935 -87.15226339 300.4418359 -86.32421875 296.1953125 C-82.65001486 277.42270219 -78.7451176 258.94381844 -73 240.6875 C-69.03285349 228.05079022 -65.81106171 215.36355612 -62.9375 202.4375 C-62.60846745 200.97003661 -62.27936217 199.50258952 -61.95019531 198.03515625 C-55.74698182 170.28853237 -50.40211367 142.40507419 -45.4621582 114.40783691 C-44.94812465 111.49765115 -44.43037611 108.58814541 -43.91210938 105.67871094 C-40.12192951 84.33031109 -36.90957234 63.11386221 -35.18847656 41.4921875 C-34.83040975 37.1340825 -34.38716861 32.78702186 -33.9375 28.4375 C-38.2275 28.4375 -42.5175 28.4375 -46.9375 28.4375 Z " fill="#C5BFE9" transform="translate(704.9375,468.5625)"/>
<path d="M0 0 C0.66 0.33 1.32 0.66 2 1 C2.58853683 14.09494436 1.14387409 26.21812956 -1.42333984 39.05419922 C-1.97564733 41.87559724 -2.47241867 44.70145589 -2.95703125 47.53515625 C-13.69933951 107.44116728 -45.8290669 164.57668006 -77 216 C-77.65081543 217.07991211 -78.30163086 218.15982422 -78.97216797 219.27246094 C-88.03184311 234.28847216 -97.51445145 248.98327201 -107.31716919 263.52250671 C-110.41084543 268.11397913 -113.47870552 272.7222028 -116.5390625 277.3359375 C-129.10884198 296.27866511 -141.90000627 315.01619088 -155.24609375 333.42333984 C-160.40669402 340.54276551 -165.4759749 347.72476477 -170.53369141 354.91748047 C-171.97111063 356.95896997 -173.4124995 358.99758672 -174.85546875 361.03515625 C-177.91155647 365.35121906 -180.95773586 369.67418426 -184 374 C-184.9288501 375.31943604 -184.9288501 375.31943604 -185.87646484 376.66552734 C-195.20463289 389.93394303 -204.2679725 403.3322504 -213 417 C-213.84643066 418.32016113 -213.84643066 418.32016113 -214.70996094 419.66699219 C-265.1807155 498.39911741 -310.14066828 582.18408213 -336.21606445 763.59912109 C-335.87335148 767.4073012 -335.93736065 771.17899949 -336 775 C-339.8125 774.2421875 -339.8125 774.2421875 -341.5 772.0625 C-371.07607878 711.67800582 -351.30027257 633.56588218 -330.828125 573.56542969 C-321.43240327 546.67017623 -309.6914238 521.0279837 -297 495.5625 C-296.50361023 494.56336578 -296.00722046 493.56423157 -295.49578857 492.53482056 C-288.56666044 478.62150765 -281.20063803 465.01551316 -273.45527649 451.54023743 C-271.17561067 447.56099879 -268.93115015 443.5621208 -266.6875 439.5625 C-265.96230322 438.27209965 -265.23704976 436.98173115 -264.51171875 435.69140625 C-264.01285156 434.80324219 -263.51398438 433.91507813 -263 433 C-265.56565813 430.34805292 -268.17095558 428.01985791 -271.125 425.8125 C-276.33710487 421.80713862 -281.18817313 417.47429252 -286 413 C-286.65613281 412.40960937 -287.31226563 411.81921875 -287.98828125 411.2109375 C-322.34755942 378.91463877 -340.89469581 325.69398269 -356 282 C-356.39719238 280.85241211 -356.79438477 279.70482422 -357.20361328 278.52246094 C-365.22032511 255.08182203 -371.72191369 231.17706873 -378.38648987 207.32624817 C-380.78603648 198.74345904 -383.22710526 190.17301497 -385.68212891 181.60595703 C-386.80464431 177.68802651 -387.91514969 173.7668365 -389.01953125 169.84375 C-405.61138523 107.26769772 -405.61138523 107.26769772 -433.72265625 49.3203125 C-435 47 -435 47 -435 43 C-430.63741784 44.44085282 -427.48894624 46.77985123 -424.0625 49.75 C-423.50183838 50.23315674 -422.94117676 50.71631348 -422.36352539 51.21411133 C-404.79966383 66.56332497 -391.73328454 83.30342743 -381 104 C-380.48276367 104.98105713 -380.48276367 104.98105713 -379.95507812 105.98193359 C-377.52433728 110.60294725 -375.23054632 115.27937183 -373 120 C-372.62939453 120.77746582 -372.25878906 121.55493164 -371.87695312 122.35595703 C-355.99198127 156.07517973 -345.7737702 193.21393107 -337.1328125 229.390625 C-323.3820736 286.22005447 -303.11969413 348.42339201 -264 393 C-262.83984375 394.32451172 -262.83984375 394.32451172 -261.65625 395.67578125 C-257.58254278 400.25870187 -253.49917547 404.83003249 -249 409 C-248.34 409 -247.68 409 -247 409 C-244.84393335 406.26531247 -243.12376313 403.2209272 -241.3125 400.25 C-240.78849609 399.425 -240.26449219 398.6 -239.72460938 397.75 C-239.23412109 396.95078125 -238.74363281 396.1515625 -238.23828125 395.328125 C-237.78493408 394.5949707 -237.33158691 393.86181641 -236.86450195 393.10644531 C-235.81803669 390.55662823 -236.01460408 389.53499728 -237 387 C-238.0738466 385.17721424 -239.20490551 383.3875474 -240.375 381.625 C-247.47480518 370.64727249 -247.47480518 370.64727249 -247 364 C-244 363 -244 363 -241.984375 363.96875 C-236.77532739 367.53858682 -232.27757502 371.35105995 -228 376 C-223.163836 371.60348727 -219.53747847 366.47997295 -216 361 C-215.58105469 360.36191406 -215.16210938 359.72382812 -214.73046875 359.06640625 C-213.39500319 355.28853844 -214.6489396 351.81245611 -216.19238281 348.24047852 C-216.69092773 347.29615967 -217.18947266 346.35184082 -217.703125 345.37890625 C-218.26459229 344.29544922 -218.82605957 343.21199219 -219.40454102 342.09570312 C-220.31804321 340.34676758 -220.31804321 340.34676758 -221.25 338.5625 C-234.50316794 312.68089832 -244.63338213 285.64712842 -254.21936035 258.23120117 C-254.98076418 256.05497926 -255.74537612 253.87990925 -256.51074219 251.70507812 C-262.3152236 235.18768447 -267.79811503 218.58694604 -273.04946899 201.8855896 C-283.68388695 168.07830749 -295.38026983 135.17873063 -311.125 103.375 C-311.68695068 102.23675781 -312.24890137 101.09851563 -312.82788086 99.92578125 C-316.36040444 92.90283072 -320.22437224 86.25797298 -324.49169922 79.66650391 C-326 77 -326 77 -326 74 C-315.6081313 74.67773057 -307.78775674 80.54038782 -300 87 C-299.01 87.7425 -298.02 88.485 -297 89.25 C-281.17552075 102.61971239 -270.72501975 123.98692345 -261 142 C-260.39164307 143.12051758 -260.39164307 143.12051758 -259.77099609 144.26367188 C-242.33990671 176.73321565 -230.63959407 212.16976269 -218.98231506 247.01734924 C-210.50859066 272.34154717 -200.77703001 297.15466786 -191 322 C-188.0218024 319.18031739 -185.68815678 316.29171451 -183.40234375 312.890625 C-182.69803223 311.84769287 -181.9937207 310.80476074 -181.26806641 309.73022461 C-180.49116243 308.57018223 -179.71430884 307.41010609 -178.9375 306.25 C-178.1037819 305.0121621 -177.26962096 303.77462236 -176.43505859 302.53735352 C-174.60498876 299.82280948 -172.77748753 297.10655941 -170.95166016 294.38916016 C-167.89535572 289.84193813 -164.82929986 285.30133853 -161.76171875 280.76171875 C-157.23132265 274.05674273 -152.70420681 267.34956804 -148.1796875 260.640625 C-143.95186049 254.37177806 -139.71994885 248.10572581 -135.48260498 241.8433075 C-120.64340843 219.91146266 -105.91984822 197.91239315 -91.44335938 175.73925781 C-89.20321914 172.30878232 -86.95420967 168.8842411 -84.703125 165.4609375 C-72.15126287 146.34812317 -60.08921405 127.00210288 -49 107 C-48.41992188 105.95489258 -47.83984375 104.90978516 -47.2421875 103.83300781 C-32.08637775 76.38325665 -19.30247411 48.23544544 -8 19 C-7.61134766 17.99694824 -7.22269531 16.99389648 -6.82226562 15.96044922 C-6.46326172 15.03377441 -6.10425781 14.10709961 -5.734375 13.15234375 C-5.4036499 12.29930664 -5.0729248 11.44626953 -4.73217773 10.56738281 C-4.13926127 9.03307177 -3.54995298 7.49735911 -2.96508789 5.95996094 C-1.10638695 1.10638695 -1.10638695 1.10638695 0 0 Z " fill="#C5BFE9" transform="translate(1492,357)"/>
<path d="M0 0 C0.93670532 0.00376648 1.87341064 0.00753296 2.83850098 0.01141357 C59.1117567 0.27522057 112.46932161 11.08684387 163.8125 34.25 C164.76511719 34.67812988 165.71773437 35.10625977 166.69921875 35.54736328 C188.65301675 45.49469958 209.33745448 57.68908877 227.8125 73.25 C228.34053223 73.68924805 228.86856445 74.12849609 229.41259766 74.58105469 C241.36495751 84.53517677 252.18711815 94.9704989 261.8125 107.25 C262.60269531 108.22324219 263.39289063 109.19648438 264.20703125 110.19921875 C295.92651414 150.01091617 314.81989388 200.1154104 322.625 250 C322.78325256 251.01107315 322.78325256 251.01107315 322.94470215 252.04257202 C324.82081842 264.18735994 325.95890215 276.19058312 326.015625 288.48046875 C326.02263931 289.50602371 326.02965363 290.53157867 326.03688049 291.58821106 C326.05425621 294.87135274 326.06073091 298.15431405 326.0625 301.4375 C326.06317474 302.55970947 326.06384949 303.68191895 326.06454468 304.83813477 C326.04921405 320.86565891 325.68485689 336.44384598 322.8125 352.25 C322.62494141 353.34650879 322.43738281 354.44301758 322.24414062 355.57275391 C320.19873352 367.46623355 317.88992875 378.87173921 313.8125 390.25 C313.4410083 391.29873291 313.0695166 392.34746582 312.68676758 393.42797852 C294.52210218 444.00993248 267.90288781 489.23381205 233.32568359 530.43261719 C231.28448904 532.88415837 229.30212513 535.38153264 227.3125 537.875 C222.04249955 544.32806178 216.28877807 550.32624464 210.5703125 556.37890625 C208.36478296 558.72656992 206.1872495 561.0989539 204.01196289 563.47460938 C197.05350455 571.07014924 189.99580923 578.47121919 182.1640625 585.1796875 C179.66844032 587.37682995 177.24487912 589.63889791 174.8215332 591.91503906 C168.35912696 597.98161102 161.73638749 603.71089001 154.8125 609.25 C153.60914861 610.24294221 152.40742985 611.23786509 151.20703125 612.234375 C126.19396956 632.93765818 98.63547484 650.57408215 70.8125 667.25 C69.7905957 667.86359375 68.76869141 668.4771875 67.71582031 669.109375 C30.64134375 691.25 30.64134375 691.25 21.8125 691.25 C23.23069611 682.92034184 34.36052203 677.54515426 40.74755859 672.79711914 C49.44774162 666.3189253 57.71989139 659.3532834 65.98168945 652.33129883 C69.35118517 649.47098907 72.75294663 646.65729398 76.1875 643.875 C85.91594775 635.95022067 95.33306484 627.64453729 104.62890625 619.21875 C106.62987985 617.41465216 108.6520031 615.63992983 110.6875 613.875 C115.09999974 610.03416014 119.3911253 606.06322663 123.6875 602.09375 C125.94057225 600.02597536 128.23145712 598.00829499 130.54125977 596.00415039 C134.52430281 592.52279073 138.42055738 588.96020372 142.27734375 585.33984375 C142.96126694 584.69796616 143.64519012 584.05608856 144.34983826 583.39476013 C151.46258266 576.68586966 158.40417911 569.81001435 165.30688477 562.88598633 C167.40200092 560.78542896 169.5025231 558.69038126 171.60351562 556.59570312 C172.96646713 555.23209189 174.32910897 553.86817107 175.69140625 552.50390625 C176.61186485 551.58648399 176.61186485 551.58648399 177.55091858 550.65052795 C181.83393743 546.34456783 185.85246868 541.85308262 189.8125 537.25 C190.89357954 536.01218899 191.97547838 534.7750925 193.05859375 533.5390625 C199.14154012 526.56528846 205.11797996 519.54704869 210.8125 512.25 C211.87087965 510.91128904 212.92949522 509.57276458 213.98828125 508.234375 C221.94609928 498.13632333 229.55032318 487.85836937 236.8125 477.25 C237.43946777 476.33943848 238.06643555 475.42887695 238.71240234 474.49072266 C253.03543471 453.62477107 264.68141359 432.87748987 273.8125 409.25 C274.14765625 408.38906738 274.4828125 407.52813477 274.828125 406.64111328 C280.13548172 392.826216 283.6512977 378.69071658 286.8125 364.25 C286.98265625 363.4976709 287.1528125 362.7453418 287.328125 361.97021484 C295.06030159 327.4837074 295.02689638 286.94521655 288.8125 252.25 C288.69503418 251.55326172 288.57756836 250.85652344 288.45654297 250.13867188 C287.71757169 245.80595529 286.79675942 241.53285854 285.8125 237.25 C285.46083719 235.63804271 285.10928225 234.02606189 284.7578125 232.4140625 C277.34581885 199.16588779 263.74316777 166.98499369 243.8125 139.25 C242.70455078 137.70119141 242.70455078 137.70119141 241.57421875 136.12109375 C209.89812602 92.96734042 168.94643667 64.72554525 119.8125 44.25 C118.7905957 43.8173584 118.7905957 43.8173584 117.74804688 43.37597656 C109.10037675 39.73208013 100.1884168 37.26234264 91.13330078 34.875 C88.9215957 34.27937986 86.72466125 33.64641839 84.52734375 33 C74.57613691 30.13491989 64.52777294 28.21377976 54.3125 26.5625 C53.06766846 26.36011719 51.82283691 26.15773438 50.5402832 25.94921875 C46.63625609 25.34068039 42.72793441 24.77889565 38.8125 24.25 C38.12091797 24.15430725 37.42933594 24.0586145 36.71679688 23.96002197 C23.2737914 22.1528183 9.91424647 21.94074998 -3.63623047 21.98925781 C-7.15480113 21.99990109 -10.67285176 21.98934116 -14.19140625 21.9765625 C-35.84626679 21.96211441 -57.43399188 23.19925112 -78.875 26.3125 C-79.57644135 26.41271454 -80.27788269 26.51292908 -81.00057983 26.61618042 C-93.6247976 28.44305031 -106.06220178 30.99737598 -118.5 33.8125 C-119.33735687 34.00200226 -120.17471375 34.19150452 -121.03744507 34.38674927 C-132.22832261 36.93992133 -143.49743442 39.51632618 -154.32543945 43.36547852 C-157.1875 44.25 -157.1875 44.25 -161.1875 44.25 C-161.11328125 42.51171875 -161.11328125 42.51171875 -160.1875 40.25 C-157.92717543 38.6546562 -155.80183564 37.35473368 -153.375 36.0625 C-152.31659912 35.48483887 -152.31659912 35.48483887 -151.23681641 34.89550781 C-138.10086596 27.86114217 -124.37742294 21.80817048 -110.1875 17.25 C-108.95902344 16.85425781 -107.73054687 16.45851563 -106.46484375 16.05078125 C-89.45443477 10.74356728 -71.95224175 6.86459294 -54.375 4 C-53.45976563 3.84909912 -52.54453125 3.69819824 -51.6015625 3.54272461 C-34.44548041 0.89564136 -17.34164679 -0.1071723 0 0 Z " fill="#C5BFE9" transform="translate(735.1875,376.75)"/>
<path d="M0 0 C2.65243056 -0.00216722 5.30443079 -0.02032426 7.95678711 -0.03930664 C24.45978477 -0.09513248 40.68234111 1.2243347 56.87670898 4.49780273 C57.98304688 4.71799072 59.08938477 4.93817871 60.22924805 5.16503906 C69.55993325 7.06631201 78.66936613 9.3313287 87.75170898 12.18530273 C89.37520264 12.689729 89.37520264 12.689729 91.03149414 13.2043457 C135.56851532 27.16766141 177.79410127 47.59871604 211.75170898 80.18530273 C212.67838379 81.0631543 212.67838379 81.0631543 213.6237793 81.95874023 C250.11067601 116.66359315 270.36513614 162.42940781 279.56420898 211.37280273 C279.87467163 213.01889526 279.87467163 213.01889526 280.19140625 214.69824219 C288.95094827 263.3054019 279.37807559 312.36483796 257.75170898 356.18530273 C257.07308931 357.58102219 256.39470471 358.97685597 255.71655273 360.37280273 C244.5217011 383.2516928 244.5217011 383.2516928 239.75170898 387.18530273 C239.09170898 387.18530273 238.43170898 387.18530273 237.75170898 387.18530273 C238.06788727 380.6509516 239.31057061 374.80800446 241.12670898 368.56030273 C244.9777782 355.14203409 247.03863202 341.62571419 248.87670898 327.81030273 C249.04759033 326.54549072 249.21847168 325.28067871 249.39453125 323.97753906 C258.09902957 256.19348118 248.50827057 185.45320775 206.30078125 129.88012695 C164.24113222 75.87978619 98.76247499 51.5596368 32.72436523 42.78295898 C18.34200553 41.04614757 3.9046801 41.01262865 -10.56079102 40.99780273 C-11.43826996 40.99662445 -12.3157489 40.99544617 -13.21981812 40.99423218 C-29.76264522 40.99674932 -46.37940159 41.30790744 -62.81079102 43.37280273 C-64.33410034 43.56181152 -64.33410034 43.56181152 -65.88818359 43.75463867 C-97.13129254 47.80754809 -128.40243776 53.53928462 -158.3137207 63.5637207 C-161.13671595 64.47075577 -164.00347788 65.19191741 -166.87329102 65.93530273 C-194.44309975 73.69234153 -230.66170303 87.26517675 -246.93579102 112.27905273 C-247.36891602 112.90811523 -247.80204102 113.53717773 -248.24829102 114.18530273 C-248.57829102 114.18530273 -248.90829102 114.18530273 -249.24829102 114.18530273 C-250.74121397 103.73484206 -244.97078458 94.69488983 -239.28735352 86.28295898 C-237.3706818 83.80693205 -235.36972612 81.48778795 -233.24829102 79.18530273 C-232.52254883 78.37963867 -231.79680664 77.57397461 -231.04907227 76.74389648 C-181.98310865 24.92050681 -95.86179103 9.00352109 -28.24829102 1.18530273 C-27.3055835 1.06968994 -26.36287598 0.95407715 -25.39160156 0.83496094 C-16.95685864 -0.08639898 -8.47470043 -0.00077092 0 0 Z " fill="#C5BFE9" transform="translate(726.248291015625,415.814697265625)"/>
<path d="M0 0 C1.98 0.495 1.98 0.495 4 1 C4.75565751 16.96956196 2.78489049 31.48735599 -1 47 C-1.18691406 47.76731445 -1.37382813 48.53462891 -1.56640625 49.32519531 C-14.33712828 99.91144425 -41.59779369 149.16054863 -67.38378906 194.16601562 C-68.99639431 196.99367752 -70.59095822 199.83073821 -72.1796875 202.671875 C-84.78362163 225.19324734 -98.24143913 247.16897276 -112 269 C-113.01571729 270.61582741 -114.03134738 272.23170963 -115.046875 273.84765625 C-121.33814483 283.84482935 -127.70351317 293.79400374 -134.07568359 303.73974609 C-141.94596683 316.02896134 -149.73648354 328.36631542 -157.46191406 340.74707031 C-181.92866751 379.95132711 -207.22043923 418.67994668 -234.71679688 455.84228516 C-240.33685013 463.43924934 -245.87036504 471.0968221 -251.39111328 478.76611328 C-254.09012128 482.51359784 -256.79538884 486.25655845 -259.5 490 C-260.58336304 491.49997854 -261.66669638 492.99997854 -262.75 494.5 C-264.91666667 497.5 -267.08333333 500.5 -269.25 503.5 C-269.78665283 504.24314453 -270.32330566 504.98628906 -270.8762207 505.75195312 C-271.95515201 507.24568331 -273.03441416 508.73917457 -274.11401367 510.23242188 C-276.89251662 514.07641628 -279.66442595 517.92491503 -282.42578125 521.78125 C-300.56012627 547.0763497 -300.56012627 547.0763497 -307 552 C-307.99 552 -308.98 552 -310 552 C-309.57485241 543.97321348 -307.14210811 537.40660808 -304.125 530 C-303.62568357 528.7558468 -303.12674834 527.51154054 -302.62817383 526.26708984 C-297.70704278 514.05071412 -292.45373099 501.98719771 -287 490 C-286.47035645 488.83243164 -285.94071289 487.66486328 -285.39501953 486.46191406 C-266.84254679 445.65897027 -245.12208964 406.77333307 -221 369 C-220.0711499 367.54303711 -220.0711499 367.54303711 -219.12353516 366.05664062 C-210.64114515 352.75437789 -202.09503387 339.49527739 -193.48193359 326.27734375 C-191.14730208 322.68962665 -188.8235415 319.09490533 -186.5 315.5 C-180.3497053 305.98933817 -174.18180598 296.49021066 -168 287 C-167.12456543 285.65591064 -167.12456543 285.65591064 -166.23144531 284.28466797 C-155.08138964 267.17613278 -143.8434035 250.12585603 -132.59179688 233.08398438 C-122.89957926 218.39816267 -113.29570014 203.65642214 -103.75 188.875 C-99.18925317 181.81855269 -94.59827648 174.78204066 -90 167.75 C-88.92480103 166.10572021 -88.92480103 166.10572021 -87.82788086 164.42822266 C-83.95007446 158.50013171 -80.06601436 152.57619329 -76.17578125 146.65625 C-71.79784023 139.99347095 -67.43112221 133.3234374 -63.0748291 126.64648438 C-62.0598494 125.09168072 -61.04316156 123.53799253 -60.02636719 121.984375 C-47.87317345 103.37218618 -36.64641904 84.16740285 -27.0234375 64.11621094 C-25.87797332 61.74767957 -24.70463491 59.39388145 -23.53125 57.0390625 C-17.85939836 45.54441311 -12.75896002 33.87080548 -7.9375 22 C-7.65387604 21.30382568 -7.37025208 20.60765137 -7.07803345 19.89038086 C-6.26432605 17.88728123 -5.45690263 15.88178968 -4.65234375 13.875 C-4.18820068 12.71742188 -3.72405762 11.55984375 -3.24584961 10.3671875 C-1.9757938 6.93457732 -0.95903794 3.52966379 0 0 Z " fill="#C5BFE9" transform="translate(1521,510)"/>
<path d="M0 0 C0.99 0.33 1.98 0.66 3 1 C11.21998714 20.07037016 9.15882028 43.84724086 5.41015625 63.75146484 C5.01459858 65.91996849 4.66931875 68.08952692 4.34375 70.26953125 C1.61761529 88.32682022 -2.3701915 106.37778867 -8.22802734 123.68408203 C-9.15561899 126.46685698 -10.03945663 129.26240465 -10.92578125 132.05859375 C-17.51673589 152.6283149 -25.71369885 172.29211461 -34.9375 191.8125 C-35.58102417 193.18656006 -35.58102417 193.18656006 -36.23754883 194.58837891 C-45.02627836 212.82590504 -55.89813924 229.75941497 -67.3125 246.4375 C-68.60556298 248.33882275 -69.89795616 250.24060119 -71.18969727 252.14282227 C-74.25957007 256.66027145 -77.33754529 261.17212044 -80.41833496 265.68212891 C-82.52764683 268.77324674 -84.62780871 271.87045403 -86.7265625 274.96875 C-97.89328869 291.43998721 -109.30269756 307.73268785 -120.98828125 323.83984375 C-123.65999998 327.52366645 -126.30228212 331.22753295 -128.9375 334.9375 C-134.58462696 342.87097398 -140.38288069 350.69263889 -146.17236328 358.52246094 C-147.99446817 360.99250106 -149.80892325 363.46797691 -151.62109375 365.9453125 C-158.15335551 374.86694826 -164.7848347 383.68101327 -171.67333984 392.33056641 C-173.96176339 395.21025728 -176.22942114 398.10623507 -178.5 401 C-179.42054364 402.17059594 -180.34111649 403.34116891 -181.26171875 404.51171875 C-183.06145772 406.80177327 -184.85534109 409.09622732 -186.64453125 411.39453125 C-193.39000807 420.04585326 -200.30868131 428.54525476 -207.32177734 436.98095703 C-208.39935398 438.27737234 -209.47534019 439.57511219 -210.54931641 440.87451172 C-224.97158105 458.31438737 -224.97158105 458.31438737 -232 463 C-234.1875 462.625 -234.1875 462.625 -236 462 C-235.5545113 455.26447678 -234.20396616 450.31756209 -231.1875 444.3125 C-230.78934082 443.4970874 -230.39118164 442.6816748 -229.98095703 441.84155273 C-225.98774776 433.76712746 -221.65831349 425.87580918 -217.296875 417.99609375 C-214.31132793 412.59449181 -211.4123499 407.1496158 -208.52124023 401.69702148 C-201.53423195 388.52599785 -194.25255523 375.55813049 -186.63037109 362.74169922 C-185.08657033 360.14558024 -183.55227937 357.54406063 -182.01953125 354.94140625 C-171.98425394 337.97696863 -161.33241529 321.39907056 -150.32568359 305.05029297 C-140.40259877 290.31062412 -131.06071402 275.2836705 -122 260 C-121.38141113 258.95714844 -120.76282227 257.91429687 -120.12548828 256.83984375 C-112.3662737 243.72143075 -104.85391815 230.47091166 -97.4375 217.15625 C-94.66792029 212.18601102 -91.86831144 207.23362964 -89.05664062 202.28710938 C-82.95664019 191.55140294 -77.01921364 180.73639853 -71.16796875 169.86328125 C-69.17345491 166.15953023 -67.15846572 162.46897224 -65.11328125 158.79296875 C-45.65584859 123.75294546 -28.48042739 87.37468375 -14 50 C-13.61585938 49.01628418 -13.23171875 48.03256836 -12.8359375 47.01904297 C-7.29436617 32.64438131 -3.93049178 18.3321405 -1.44555664 3.13525391 C-1 1 -1 1 0 0 Z " fill="#C5BFE9" transform="translate(1507,393)"/>
<path d="M0 0 C7.71332441 6.48101815 9.77151528 20.40116873 11.8125 29.75 C12.0192334 30.69520508 12.2259668 31.64041016 12.43896484 32.61425781 C14.69263531 43.51300062 15.16332457 54.20476305 15.125 65.3125 C15.12886719 66.45267578 15.13273438 67.59285156 15.13671875 68.76757812 C15.13542969 69.87166016 15.13414062 70.97574219 15.1328125 72.11328125 C15.13168457 73.10110596 15.13055664 74.08893066 15.12939453 75.10668945 C14.99358264 78.14349461 14.52185809 81.00742396 14 84 C13.83203599 85.81950058 13.68925889 87.64148256 13.5703125 89.46484375 C13.49901123 90.49996094 13.42770996 91.53507813 13.35424805 92.6015625 C13.27859619 93.70242188 13.20294434 94.80328125 13.125 95.9375 C11.71460582 115.0091191 9.05215651 133.61371897 5.30859375 152.36328125 C4.44176264 156.70762733 3.62002584 161.05584351 2.84765625 165.41796875 C-3.1292684 199.13636585 -10.79443227 233.04877626 -20.7890625 265.81640625 C-22.67982225 272.17294549 -24.18867023 278.63404506 -25.77001953 285.07275391 C-27.24155137 291.04100009 -28.80235999 296.96745901 -30.5 302.875 C-32.55973272 310.06922258 -34.23929628 317.32374527 -35.875 324.625 C-38.50918878 336.32274311 -41.72639683 347.77263188 -45.18701172 359.24902344 C-45.92133092 361.73380084 -46.61517348 364.22380816 -47.28515625 366.7265625 C-53.3909067 389.40642492 -61.64114462 411.50730456 -69.37043762 433.67054749 C-71.31178979 439.23788738 -73.24981203 444.80638397 -75.1875 450.375 C-75.57171112 451.47762177 -75.95592224 452.58024353 -76.35177612 453.71627808 C-81.72759431 469.16098541 -86.8956159 484.64773969 -91.56518555 500.32177734 C-93.75563247 507.59655501 -96.28919104 514.35077648 -100 521 C-101.32 520.67 -102.64 520.34 -104 520 C-104.98361185 454.60494473 -92.70162646 391.01310455 -75.58056641 328.14697266 C-74.86194306 325.48945639 -74.15584989 322.82869865 -73.44921875 320.16796875 C-70.29965596 308.34174782 -67.02667629 296.56610874 -63.55541992 284.83032227 C-61.57319772 278.08432774 -59.74419636 271.311142 -58 264.5 C-54.11014231 249.34216162 -49.74628058 234.32905449 -44.9375 219.4375 C-42.08031562 210.57217333 -39.74384651 201.59605911 -37.4375 192.57421875 C-36.16796262 187.61402758 -34.82399707 182.67861497 -33.4375 177.75 C-31.58743265 171.15603949 -29.80548136 164.54767703 -28.08129883 157.91967773 C-26.80455274 153.02166859 -25.49304769 148.13483197 -24.15234375 143.25390625 C-20.51268079 129.93750265 -17.12258328 116.61435966 -14.1875 103.125 C-13.77105225 101.21231323 -13.77105225 101.21231323 -13.34619141 99.26098633 C-10.24415132 84.76625616 -7.5897666 70.35683838 -5.9375 55.625 C-5.85284485 54.89007324 -5.7681897 54.15514648 -5.68096924 53.39794922 C-4.16486141 40.14967411 -3.25266853 26.89779111 -2.68334961 13.57666016 C-2.6508461 12.88690094 -2.61834259 12.19714172 -2.58485413 11.48648071 C-2.49809973 9.62673961 -2.4222351 7.7664995 -2.34716797 5.90625 C-2 3 -2 3 0 0 Z " fill="#C5BFE9" transform="translate(721,519)"/>
<path d="M0 0 C14.10999569 2.07330549 28.38747549 9.99712808 40 18 C40.5578418 18.38430176 41.11568359 18.76860352 41.69042969 19.16455078 C81.64789897 47.35818738 101.07259679 87.602149 112.81005859 133.55151367 C114.13716099 138.74313474 115.52836566 143.9026211 117.04418945 149.04223633 C125.31889338 177.12356466 131.84288476 205.70426266 137.64556885 234.38664246 C138.43536357 238.28511619 139.25110188 242.17617335 140.10107422 246.06201172 C140.28473541 246.90894089 140.46839661 247.75587006 140.65762329 248.62846375 C141.00995857 250.24852598 141.36687508 251.86760176 141.7293396 253.48542786 C143.12753923 259.94564344 143.89856123 266.39661981 143 273 C142.34 273.99 141.68 274.98 141 276 C135.40249965 275.37057682 133.46996904 272.73112999 129.97607422 268.58105469 C126.9492679 264.62758342 124.46343464 260.4803941 122.0625 256.125 C121.54945312 255.2057373 121.03640625 254.28647461 120.5078125 253.33935547 C107.07147255 228.98389511 97.70660601 202.96645921 88.625 176.75 C58.07661588 86.30984623 58.07661588 86.30984623 5 9 C2.95899186 6.69793268 0.98016315 4.35478862 -1 2 C-0.67 1.34 -0.34 0.68 0 0 Z " fill="#C5BFE9" transform="translate(1083,400)"/>
<path d="M0 0 C-3.77699597 10.81951972 -13.3613553 19.78461199 -21 28 C-24.23351721 31.61266856 -27.39728162 35.28141857 -30.51304626 38.99613953 C-37.72252162 47.56919479 -45.32041032 55.61734168 -53.25390625 63.51953125 C-54.48864745 64.7556258 -55.72309217 65.99201657 -56.95726013 67.22868347 C-59.51963238 69.79397222 -62.08550325 72.35569175 -64.65405273 74.91479492 C-67.9171919 78.16650524 -71.17121556 81.4271668 -74.42266941 84.69055653 C-76.96118131 87.23635086 -79.50450557 89.7772949 -82.0492382 92.31686974 C-83.25017224 93.51648675 -84.44967042 94.71754327 -85.64758492 95.92017555 C-92.78844519 103.08300627 -100.05434758 109.72531486 -108 116 C-109.1634968 116.97495494 -110.32360431 117.954011 -111.4765625 118.94140625 C-121.94163271 127.72705991 -133.4005207 134.87853904 -144.97167969 142.10742188 C-148.50845144 144.31776166 -152.03211091 146.54828695 -155.55493164 148.78076172 C-158.61177172 150.71657815 -161.67326766 152.64495899 -164.73486328 154.57324219 C-168.59547099 157.00495068 -172.45426605 159.43952736 -176.3125 161.875 C-177.08682373 162.36371582 -177.86114746 162.85243164 -178.65893555 163.35595703 C-183.89827851 166.66541174 -189.12837356 169.98914613 -194.35424805 173.31982422 C-198.03939616 175.66777641 -201.72745612 178.01113506 -205.41552734 180.35449219 C-207.85984972 181.91076772 -210.2993366 183.47437855 -212.73828125 185.0390625 C-214.15864784 185.94303261 -215.57920765 186.84669922 -217 187.75 C-217.62801514 188.15621582 -218.25603027 188.56243164 -218.90307617 188.98095703 C-223.35439334 191.79584114 -227.50542348 194.32537955 -232.875 193.625 C-233.57625 193.41875 -234.2775 193.2125 -235 193 C-235.75 190.875 -235.75 190.875 -236 188 C-232.86908186 181.83600491 -227.73584217 178.44890007 -222.25 174.4375 C-220.34745881 173.01763207 -218.4464317 171.59573324 -216.546875 170.171875 C-215.13631836 169.11709961 -215.13631836 169.11709961 -213.69726562 168.04101562 C-204.3624713 160.97739501 -195.41800412 153.4013247 -186.50976562 145.8112793 C-182.6006192 142.48594266 -178.61149374 139.27718061 -174.58984375 136.08984375 C-171.53917618 133.62814368 -168.54864956 131.10175172 -165.5625 128.5625 C-156.91764432 121.21695116 -148.12571079 114.07882088 -139.19384766 107.0859375 C-130.92079089 100.59975229 -122.84322295 93.8907173 -114.83349609 87.08374023 C-111.44046978 84.20433717 -108.01727493 81.36791929 -104.5625 78.5625 C-100.29253963 75.08926693 -96.1052486 71.53175655 -91.9375 67.9375 C-87.27693019 63.92254754 -82.56952981 59.99407929 -77.7421875 56.1796875 C-74.91524695 53.93263219 -72.11455986 51.65575113 -69.31640625 49.37304688 C-61.9055521 43.3280874 -54.44121158 37.35987998 -46.8984375 31.48046875 C-44.82618365 29.86445186 -42.75689033 28.24468183 -40.6875 26.625 C-33.26731429 20.82530543 -25.82191565 15.05882945 -18.3125 9.375 C-17.36044678 8.6480896 -17.36044678 8.6480896 -16.38916016 7.90649414 C-5.8797337 0 -5.8797337 0 0 0 Z " fill="#C4BFE9" transform="translate(847,949)"/>
<path d="M0 0 C1.32 0 2.64 0 4 0 C4.68220289 10.0056424 2.67961045 18.47903978 0 28 C-0.23847656 28.89976562 -0.47695312 29.79953125 -0.72265625 30.7265625 C-1.86282063 35.02778142 -3.08627335 39.30214655 -4.34375 43.5703125 C-4.72007568 44.85965698 -4.72007568 44.85965698 -5.10400391 46.17504883 C-5.59013684 47.83802987 -6.08130917 49.49955387 -6.57958984 51.15893555 C-9.26051426 60.34900003 -11.25296517 69.70599553 -13.33831787 79.04458618 C-14.19400958 82.86654691 -15.06250144 86.68554791 -15.93069458 90.50468445 C-16.78771083 94.28254409 -17.63680311 98.06216209 -18.48486328 101.84204102 C-18.912944 103.74489411 -19.34329706 105.64723738 -19.77587891 107.54907227 C-24.10321172 126.58641059 -27.28249922 145.1730324 -28.1875 164.6875 C-28.26926276 166.28715664 -28.35194269 167.88676667 -28.43554688 169.48632812 C-28.63418697 173.32376865 -28.82071413 177.16160861 -29 181 C-31.33666992 181.62329102 -31.33666992 181.62329102 -34 182 C-38.42714082 178.65813735 -40.33645995 174.64905663 -42.1875 169.5625 C-42.43435547 168.91990234 -42.68121094 168.27730469 -42.93554688 167.61523438 C-43.64509243 165.75149471 -44.32310754 163.87584568 -45 162 C-45.52581665 160.58340088 -45.52581665 160.58340088 -46.06225586 159.13818359 C-58.81694412 116.45430886 -29.27365034 50.42945203 -9.8203125 13.2421875 C-7.05673293 8.31993204 -3.98741262 3.98741262 0 0 Z " fill="#C4BEE9" transform="translate(1214,960)"/>
</svg>
